<?xml version="1.0" encoding="UTF-8" standalone="no"?>
<!DOCTYPE svg PUBLIC "-//W3C//DTD SVG 1.1//EN" "http://www.w3.org/Graphics/SVG/1.1/DTD/svg11.dtd">
<svg version="1.1" xmlns="http://www.w3.org/2000/svg" xmlns:xlink="http://www.w3.org/1999/xlink" preserveAspectRatio="xMidYMid meet" viewBox="0 0 50 30" width="50" height="30"><defs><path d="M8.08 1.62L8.34 22.37L3.21 22.45L2.94 1.7L8.08 1.62Z" id="c3KSvdEGQs"></path><path d="M26.86 22.34L4.96 22.35L4.96 17.53L26.86 17.52L26.86 22.34Z" id="b42g8gDHD1"></path><path d="M47.79 22.34L25.89 22.35L25.89 17.49L47.79 17.48L47.79 22.34Z" id="avyVAgE7v"></path><path d="M18.98 10.22L18.98 28.48L13.48 28.48L13.48 10.22L18.98 10.22Z" id="amNHXkkTt"></path><path d="M29.22 10.22L29.22 28.48L24.48 28.48L24.48 10.22L29.22 10.22Z" id="cfsnn8jQd"></path><path d="M36.84 13.87L36.84 20.44L33.19 20.44L33.19 13.87L36.84 13.87Z" id="b18HCF5ugA"></path><path d="M47.79 13.87L33.19 13.87L33.19 10.2L47.79 10.2L47.79 13.87Z" id="aAhZbt03Q"></path><path d="M47.79 28.5L33.19 28.5L33.19 24.83L47.79 24.83L47.79 28.5Z" id="g1g1LLV8U"></path><path d="M47.79 19.04L47.79 26.34L44.68 26.34L44.68 19.04L47.79 19.04Z" id="fapCD2KWJ"></path></defs><g><g><g><use xlink:href="#c3KSvdEGQs" opacity="1" fill="#000000" fill-opacity="1"></use><g><use xlink:href="#c3KSvdEGQs" opacity="1" fill-opacity="0" stroke="#000000" stroke-width="1" stroke-opacity="0"></use></g></g><g><use xlink:href="#b42g8gDHD1" opacity="1" fill="#000000" fill-opacity="1"></use><g><use xlink:href="#b42g8gDHD1" opacity="1" fill-opacity="0" stroke="#000000" stroke-width="1" stroke-opacity="0"></use></g></g><g><use xlink:href="#avyVAgE7v" opacity="1" fill="#000000" fill-opacity="1"></use><g><use xlink:href="#avyVAgE7v" opacity="1" fill-opacity="0" stroke="#000000" stroke-width="1" stroke-opacity="0"></use></g></g><g><use xlink:href="#amNHXkkTt" opacity="1" fill="#000000" fill-opacity="1"></use><g><use xlink:href="#amNHXkkTt" opacity="1" fill-opacity="0" stroke="#000000" stroke-width="1" stroke-opacity="0"></use></g></g><g><use xlink:href="#cfsnn8jQd" opacity="1" fill="#000000" fill-opacity="1"></use><g><use xlink:href="#cfsnn8jQd" opacity="1" fill-opacity="0" stroke="#000000" stroke-width="1" stroke-opacity="0"></use></g></g><g><use xlink:href="#b18HCF5ugA" opacity="1" fill="#000000" fill-opacity="1"></use><g><use xlink:href="#b18HCF5ugA" opacity="1" fill-opacity="0" stroke="#000000" stroke-width="1" stroke-opacity="0"></use></g></g><g><use xlink:href="#aAhZbt03Q" opacity="1" fill="#000000" fill-opacity="1"></use><g><use xlink:href="#aAhZbt03Q" opacity="1" fill-opacity="0" stroke="#000000" stroke-width="1" stroke-opacity="0"></use></g></g><g><use xlink:href="#g1g1LLV8U" opacity="1" fill="#000000" fill-opacity="1"></use><g><use xlink:href="#g1g1LLV8U" opacity="1" fill-opacity="0" stroke="#000000" stroke-width="1" stroke-opacity="0"></use></g></g><g><use xlink:href="#fapCD2KWJ" opacity="1" fill="#000000" fill-opacity="1"></use><g><use xlink:href="#fapCD2KWJ" opacity="1" fill-opacity="0" stroke="#000000" stroke-width="1" stroke-opacity="0"></use></g></g></g></g></svg>